<svg width="21" height="21" viewBox="0 0 21 21" fill="none" xmlns="http://www.w3.org/2000/svg">
<path fill-rule="evenodd" clip-rule="evenodd" d="M10.4693 5.13102C10.6077 5.12221 10.7491 5.17069 10.8548 5.27646L13.5632 7.98479C13.7584 8.18005 13.7584 8.49663 13.5632 8.69189C13.3679 8.88716 13.0513 8.88716 12.8561 8.69189L11 6.83581V12.1301C11 12.4062 10.7761 12.6301 10.5 12.6301C10.2239 12.6301 10 12.4062 10 12.1301V6.83841L8.14652 8.69189C7.95126 8.88716 7.63468 8.88716 7.43942 8.69189C7.24415 8.49663 7.24415 8.18005 7.43942 7.98479L10.1263 5.29793C10.2115 5.2021 10.3331 5.13927 10.4693 5.13102ZM6.125 12.1301C6.125 11.854 5.90114 11.6301 5.625 11.6301C5.34886 11.6301 5.125 11.854 5.125 12.1301V14.2968C5.125 14.7167 5.29185 15.1194 5.58872 15.4163C5.88569 15.7133 6.28845 15.8801 6.70833 15.8801H14.2917C14.7116 15.8801 15.1143 15.7133 15.4113 15.4163C15.7082 15.1194 15.875 14.7167 15.875 14.2968V12.1301C15.875 11.854 15.6511 11.6301 15.375 11.6301C15.0989 11.6301 14.875 11.854 14.875 12.1301V14.2968C14.875 14.4515 14.8136 14.5998 14.7041 14.7092C14.5947 14.8187 14.4464 14.8801 14.2917 14.8801H6.70833C6.5536 14.8801 6.40524 14.8186 6.29588 14.7093C6.18643 14.5998 6.125 14.4514 6.125 14.2968V12.1301Z" fill="black"/>
</svg>
